<?xml version="1.0" encoding="utf-8"?>
<!-- Generator: Adobe Illustrator 18.0.0, SVG Export Plug-In . SVG Version: 6.00 Build 0)  -->
<!DOCTYPE svg PUBLIC "-//W3C//DTD SVG 1.1//EN" "http://www.w3.org/Graphics/SVG/1.1/DTD/svg11.dtd">
<svg version="1.1" id="Слой_1" xmlns="http://www.w3.org/2000/svg" xmlns:xlink="http://www.w3.org/1999/xlink" x="0px" y="0px"
	 viewBox="0 0 749.5 866.2" enable-background="new 0 0 749.5 866.2" xml:space="preserve">
<g>
	<g>
		<path fill="#231F20" d="M125.2,810.8c0,2.1-1.1,3.1-3.3,3.1h-2.5c-1.7,0-2.8-0.9-3.3-2.7l-17.6-56.6H38.3l-17.1,56.6
			c-0.3,0.7-0.7,1.3-1.4,1.9c-0.6,0.6-1.3,0.8-2,0.8h-2.7c-2.1,0-3.1-1.1-3.1-3.3c0-0.8,0.1-1.5,0.2-1.9L55,667.3
			c1-3.2,2.6-5.7,4.9-7.5c2.3-1.8,5.2-2.7,8.7-2.7c3.3,0,6.2,0.9,8.5,2.6c2.3,1.7,3.9,4.2,4.9,7.4l42.8,141.6
			C125.1,809.5,125.2,810.2,125.2,810.8z M73.4,669.6c-0.3-1.1-0.8-2.1-1.5-2.9c-0.7-0.8-1.8-1.3-3.3-1.3c-1.5,0-2.6,0.4-3.3,1.1
			c-0.7,0.8-1.2,1.7-1.5,2.8l-23,76h55.4L73.4,669.6z"/>
		<path fill="#231F20" d="M225.2,667h-44.7v142.7c0,1.1-0.3,2.1-0.9,2.8c-0.6,0.8-1.5,1.1-2.6,1.1h-2.1c-1.1,0-2-0.4-2.6-1.1
			c-0.6-0.8-0.9-1.7-0.9-2.8V667h-44.9c-2.6,0-4-1-4-3.1V662c0-2.4,1.3-3.6,4-3.6h98.8c2.6,0,4,1.2,4,3.6v1.9
			C229.2,666,227.9,667,225.2,667z"/>
		<path fill="#231F20" d="M341,703.4c0,8.2-1.3,15.1-3.9,20.8c-2.6,5.6-6.3,10.2-11.2,13.8c-4.9,3.6-10.8,6.1-17.9,7.7
			c-7,1.6-15,2.4-23.9,2.4c-4,0-8.1-0.1-12.2-0.2c-4.1-0.1-7.6-0.3-10.6-0.6v62.5c0,1.1-0.3,2.1-0.9,2.8c-0.6,0.8-1.5,1.1-2.6,1.1
			h-2.1c-1.1,0-2-0.4-2.6-1.1c-0.6-0.8-0.9-1.7-0.9-2.8V662.4c0-1,0.3-1.8,1-2.6c0.7-0.8,1.5-1.2,2.5-1.4c3.6-0.3,8.1-0.5,13.6-0.7
			c5.4-0.2,10.4-0.3,14.8-0.3c8.9,0,16.9,0.8,23.9,2.4c7,1.6,13,4.1,17.9,7.5c4.9,3.4,8.6,7.8,11.2,13.2c2.6,5.4,3.9,11.8,3.9,19.3
			V703.4z M331.8,699.8c0-6.4-1-11.8-3-16.2c-2-4.4-5-7.9-9.1-10.7c-4-2.7-9-4.6-14.9-5.7c-5.9-1.1-12.8-1.7-20.6-1.7
			c-4.5,0-8.6,0-12.4,0.1c-3.8,0.1-7.3,0.2-10.3,0.5v72.9c3.2,0.3,6.9,0.5,11.1,0.6c4.2,0.1,8.1,0.2,11.7,0.2
			c16.2,0,28.1-2.8,35.9-8.4c7.8-5.6,11.7-15,11.7-28.2V699.8z"/>
		<path fill="#231F20" d="M365,662.4c0-1.1,0.3-2.1,0.9-2.8c0.6-0.8,1.5-1.1,2.6-1.1h2.5c1.1,0,1.9,0.4,2.4,1.1
			c0.5,0.8,0.8,1.7,0.8,2.8v141.9c0,0.4,0.1,0.8,0.2,1.3c0.1,0.4,0.4,0.6,0.8,0.6c0.6,0,1.1-0.5,1.7-1.5l70.4-140.8
			c1-1.9,2.2-3.5,3.6-4.7c1.4-1.2,3.6-1.8,6.5-1.8c3.1,0,5.5,0.9,7.4,2.7c1.9,1.8,2.8,4.3,2.8,7.5v142.1c0,1.1-0.3,2.1-0.9,2.8
			c-0.6,0.8-1.5,1.1-2.6,1.1h-2.1c-1.1,0-2-0.4-2.6-1.1c-0.6-0.8-0.9-1.7-0.9-2.8V667.6c0-1-0.3-1.5-1-1.5c-0.7,0-1.3,0.5-1.7,1.5
			l-70.6,141c-1,2-2.2,3.6-3.8,4.8c-1,0.7-2,1.1-3,1.3c-1,0.1-2.3,0.2-3.9,0.2h-0.2c-2.6,0-4.8-0.9-6.5-2.8
			c-1.8-1.9-2.7-4.5-2.7-7.8V662.4z"/>
		<path fill="#231F20" d="M588.3,658.6c2.9,0,3.8,1.7,2.5,5.2l-45.3,122.2c-2.1,5.4-4.1,10-6.2,13.7c-2,3.7-4.4,6.7-7,9
			c-2.6,2.3-5.7,3.9-9.1,4.9c-3.4,1-7.6,1.5-12.4,1.5c-2.4,0-4.6-0.1-6.8-0.4c-2.2-0.3-4.2-0.6-6.2-0.8c-1.7-0.3-2.8-0.6-3.3-1
			c-0.6-0.4-0.8-1.3-0.8-2.7v-1.3c0-1.5,0.5-2.5,1.4-2.8c0.9-0.3,1.9-0.5,3-0.3c1.7,0.3,3.9,0.6,6.7,0.8c2.8,0.3,4.9,0.4,6.3,0.4
			c3.9,0,7.1-0.3,9.7-1c2.6-0.7,4.8-1.9,6.7-3.7c1.9-1.7,3.5-4.1,4.9-7c1.4-2.9,2.9-6.6,4.6-11.1l8.6-23.8H543
			c-3.2,0-5.7-0.7-7.6-2.1c-1.9-1.4-3.6-4.6-5.1-9.6l-33.4-85c-0.7-1.9-0.6-3.3,0.2-4c0.8-0.7,1.9-1,3.1-1h1.5
			c1.4,0,2.3,0.3,2.7,0.9c0.4,0.6,0.8,1.3,1,2l33.4,85.7c0.7,2.2,1.5,3.6,2.3,4c0.8,0.4,1.7,0.6,2.5,0.6h5.2l33.4-90.5
			c0.6-1.8,1.9-2.7,4.2-2.7H588.3z"/>
		<path fill="#231F20" d="M734.7,812.5c-0.6,0.8-1.5,1.1-2.6,1.1H730c-1.1,0-2-0.4-2.6-1.1c-0.6-0.8-0.9-1.7-0.9-2.8V667.6
			c0-1-0.5-1.5-1.5-1.5c-0.8,0-1.5,0.6-2.1,1.9l-36.1,76.3c-1.5,3.1-3.1,5.1-4.7,6.1c-1.6,1-3.6,1.5-6,1.5c-2.4,0-4.4-0.5-6-1.5
			c-1.6-1-3.2-3-4.7-6.1L629.3,668c-0.6-1.3-1.3-1.9-2.1-1.9c-1,0-1.5,0.5-1.5,1.5v142.1c0,1.1-0.3,2.1-0.9,2.8
			c-0.6,0.8-1.5,1.1-2.6,1.1h-2.1c-1.1,0-2-0.4-2.6-1.1c-0.6-0.8-0.9-1.7-0.9-2.8V667.6c0-3.5,1-6.1,2.9-7.7
			c1.9-1.7,4.5-2.5,7.7-2.5c2.5,0,4.5,0.6,6.1,1.9c1.5,1.3,2.7,2.8,3.6,4.6l36.6,76.7c0.8,1.8,1.7,2.7,2.7,2.7c1,0,1.9-0.9,2.7-2.7
			l36.6-76.7c0.8-1.8,2-3.3,3.6-4.6c1.5-1.3,3.6-1.9,6.1-1.9c3.2,0,5.8,0.8,7.7,2.5c1.9,1.7,2.9,4.3,2.9,7.7v142.1
			C735.6,810.8,735.3,811.8,734.7,812.5z"/>
	</g>
	<g>
		<path fill="#7D7FBC" d="M403.1,345.8H302.5c-4.5,0-8.1,3.6-8.1,8.1c0,4.5,3.6,8.1,8.1,8.1h100.6c4.5,0,8.1-3.6,8.1-8.1
			C411.2,349.4,407.6,345.8,403.1,345.8z"/>
		<path fill="#6EA0D5" d="M136.2,386.4c0.7,1.4,2,2.3,3.4,2.8c0.5,0.2,1.1,0.2,1.7,0.2c2.5,0,4.8-1.7,5.6-4.1l63.7-214.9
			c4.6-15.6,10.3-30.3,16.9-43.4c1.4-2.9,0.3-6.3-2.6-7.8c-0.8-0.4-1.7-0.6-2.6-0.6c-2.2,0-4.2,1.2-5.2,3.2
			c-6.9,13.8-12.9,29-17.7,45.3L135.7,382C135.3,383.5,135.4,385,136.2,386.4z"/>
		<path fill="#61C7F2" d="M298.4,43.6c1.3,2.9,4.2,4.7,7.4,4.7c1.2,0,2.3-0.3,3.4-0.7c27.8-12.8,53.1-14.2,62.7-14.2l1,0
			c18,0.2,53.4,4.1,87.9,28.3c1.4,1,3,1.5,4.7,1.5c2.6,0,5.1-1.3,6.6-3.4c1.2-1.8,1.7-3.9,1.4-6.1c-0.4-2.1-1.6-4-3.3-5.2
			c-38-26.7-77.1-31-97-31.2l-1,0c-13.3,0-40,2-69.6,15.7C298.3,34.7,296.5,39.6,298.4,43.6z"/>
		<path fill="#61C7F2" d="M546.7,201.3c0.4,1.5,1.8,2.5,3.3,2.5c0.3,0,0.7,0,1-0.1c1.8-0.5,2.9-2.5,2.3-4.3l-9.3-31.5
			c-11.3-38.3-28.6-69.8-51.3-93.7c-1.3-1.4-3.5-1.4-4.9-0.1c-1.4,1.3-1.4,3.5-0.1,4.9c21.9,23.1,38.7,53.6,49.7,90.9L546.7,201.3z"
			/>
		<path fill="#85539E" d="M596.3,328.2c-1-3.4-4.2-5.8-7.8-5.8c-0.8,0-1.5,0.1-2.3,0.3c-4.3,1.3-6.7,5.8-5.5,10.1L622.2,473
			c1,3.4,4.2,5.8,7.8,5.8c0.8,0,1.6-0.1,2.3-0.3c4.3-1.3,6.7-5.8,5.5-10.1L596.3,328.2z"/>
		<path fill="#85539E" d="M133.8,482.1c0.5,0.2,1.1,0.2,1.7,0.2c2.5,0,4.8-1.7,5.6-4.1l34.2-115.5c0.4-1.5,0.3-3-0.5-4.4
			c-0.7-1.4-2-2.3-3.4-2.8c-3-0.9-6.3,0.9-7.2,3.9l-34.2,115.5c-0.4,1.5-0.3,3,0.5,4.4C131.1,480.7,132.3,481.7,133.8,482.1z"/>
		<path fill="#61C7F2" d="M190.3,279.4c-0.5,1.8,0.5,3.8,2.3,4.3c0.3,0.1,0.7,0.1,1,0.1c1.5,0,2.9-1,3.3-2.5l31.7-107
			c10.6-35.6,27.1-64.1,49.1-84.9c1.4-1.3,1.5-3.5,0.1-4.9c-1.3-1.4-3.5-1.5-4.9-0.1c-22.9,21.6-40.1,51.2-51,88L190.3,279.4z"/>
		<path fill="#61C7F2" d="M407.9,49.1c-1.9-0.5-3.8,0.6-4.2,2.5c-0.5,1.9,0.6,3.8,2.5,4.2c25.6,6.5,61.8,23.5,88.3,66.8
			c0.7,1.1,1.8,1.7,3,1.7c0.6,0,1.2-0.2,1.8-0.5c1.6-1,2.2-3.1,1.1-4.8C472.6,73.7,434.8,56,407.9,49.1z"/>
		<path fill="#6EA0D5" d="M529.1,191c-0.5-1.8-2.5-2.9-4.3-2.3c-1.8,0.5-2.9,2.5-2.3,4.3L584,400.9c0.4,1.5,1.8,2.5,3.3,2.5
			c0.3,0,0.7,0,1-0.1c1.8-0.5,2.9-2.5,2.3-4.3L529.1,191z"/>
		<path fill="#85539E" d="M153.8,488.1c0.5,0.2,1.1,0.2,1.7,0.2c2.5,0,4.8-1.7,5.6-4.1l72.1-243.2c0.4-1.5,0.3-3-0.5-4.4
			c-0.7-1.4-2-2.3-3.4-2.8c-3-0.9-6.3,0.9-7.2,3.9l-72.1,243.2c-0.4,1.5-0.3,3,0.5,4.4C151.1,486.6,152.3,487.6,153.8,488.1z"/>
		<path fill="#61C7F2" d="M372.9,64.7l-0.8,0c-18.7,0-82.4,5.6-118.8,78c-1.4,2.9-0.3,6.3,2.6,7.8c0.8,0.4,1.7,0.6,2.6,0.6
			c2.2,0,4.2-1.2,5.2-3.2C297.1,81.4,355,76.3,372,76.3l0.8,0c20.5,0.2,89.5,7.6,119.3,96.2c0.8,2.4,3,3.9,5.5,3.9
			c0.6,0,1.2-0.1,1.8-0.3c3-1,4.7-4.3,3.6-7.3C470.8,72.9,395.3,64.9,372.9,64.7z"/>
		<path fill="#7D7FBC" d="M528,244.5c-1.2-4.2-5.8-6.7-10.1-5.5c-4.3,1.3-6.7,5.8-5.5,10.1L542.6,351c1,3.4,4.2,5.8,7.8,5.8
			c0.8,0,1.5-0.1,2.3-0.3c4.3-1.3,6.7-5.8,5.5-10.1L528,244.5z"/>
		<path fill="#85539E" d="M573.8,407.4c-0.9-3-4.2-4.8-7.2-3.9c-3.1,0.9-4.8,4.1-3.9,7.2c8.6,29,16.2,54.9,21.7,73.4
			c0.7,2.4,3,4.2,5.6,4.2c0.6,0,1.1-0.1,1.6-0.2c3.1-0.9,4.8-4.1,3.9-7.2C590,462.3,582.4,436.4,573.8,407.4z"/>
		<path fill="#85539E" d="M174.5,491.8c0.3,0.1,0.7,0.1,1,0.1c1.5,0,2.9-1,3.3-2.5l42.7-144.2c0.5-1.8-0.5-3.8-2.3-4.3
			c-1.8-0.5-3.8,0.5-4.3,2.3l-42.7,144.2C171.6,489.3,172.6,491.2,174.5,491.8z"/>
		<path fill="#6EA0D5" d="M254.3,222.5c0.3,0.1,0.7,0.1,1,0.1c1.5,0,2.9-1,3.3-2.5l10.8-36.4c11.5-38.5,32.6-64.8,62.7-78.3
			c1.8-0.8,2.5-2.8,1.7-4.6c-0.8-1.7-2.8-2.5-4.6-1.7c-22,9.9-51.4,32.2-66.5,82.7l-10.8,36.4C251.4,220,252.4,222,254.3,222.5z"/>
		<path fill="#6EA0D5" d="M482.9,181.8c-18.1-60.8-56.5-82-85.5-89.1c-1.9-0.5-3.7,0.7-4.2,2.5c-0.5,1.9,0.7,3.7,2.5,4.2
			c27.2,6.7,63.3,26.7,80.5,84.3c4.6,15.4,18.7,63.1,34.6,117.1c0.4,1.5,1.8,2.5,3.3,2.5c0.3,0,0.7,0,1-0.1c1.8-0.5,2.9-2.5,2.3-4.3
			C501.5,244.9,487.4,197.3,482.9,181.8z"/>
		<path fill="#85539E" d="M570,496.6c0.8,0,1.6-0.1,2.3-0.3c4.3-1.3,6.7-5.8,5.5-10.1c-7.4-25.2-23.3-78.7-39.8-134.4
			c-1-3.4-4.2-5.8-7.8-5.8c-0.8,0-1.5,0.1-2.3,0.3c-4.3,1.3-6.7,5.8-5.5,10.1c16.5,55.7,32.3,109.2,39.8,134.4
			C563.2,494.2,566.4,496.6,570,496.6z"/>
		<path fill="#85539E" d="M217.7,419.3c-1.8-0.5-3.8,0.5-4.3,2.3l-21.3,71.8c-0.5,1.8,0.5,3.8,2.3,4.3c0.3,0.1,0.7,0.1,1,0.1
			c1.5,0,2.9-1,3.3-2.5l21.3-71.8C220.6,421.8,219.5,419.8,217.7,419.3z"/>
		<path fill="#7D7FBC" d="M232.8,348.2c1,1.9,2.7,3.3,4.8,3.9c0.8,0.2,1.5,0.3,2.3,0.3c3.6,0,6.8-2.4,7.8-5.8l46.5-156.8
			c2.6-8.8,6-16.8,10-24c2.2-3.9,0.8-8.8-3.1-11c-1.2-0.7-2.6-1-4-1c-2.9,0-5.6,1.6-7.1,4.1c-4.6,8.2-8.4,17.3-11.4,27.3L232.1,342
			C231.5,344.1,231.7,346.3,232.8,348.2z"/>
		<path fill="#6EA0D5" d="M372.9,107.5l-0.8,0c-6.5,0-23.7,1.1-42.2,10.8c-4,2.1-5.5,7-3.4,11c1.4,2.7,4.2,4.3,7.2,4.3
			c1.3,0,2.6-0.3,3.8-0.9c15.3-8.1,29.6-8.9,35-8.9l0.3,0c13.8,0.1,60.4,5.1,78.6,66.1c1,3.4,4.2,5.8,7.8,5.8c0.8,0,1.6-0.1,2.3-0.3
			c2.1-0.6,3.8-2,4.8-3.9c1-1.9,1.2-4.1,0.6-6.2C445.4,113.6,389.5,107.6,372.9,107.5z"/>
		<path fill="#7D7FBC" d="M527.6,424.7c0.6,0,1.1-0.1,1.6-0.2c3.1-0.9,4.8-4.1,3.9-7.2l-45.9-155.2c-0.9-3-4.2-4.8-7.2-3.9
			c-3.1,0.9-4.8,4.1-3.9,7.2l45.9,155.2C522.8,423,525.1,424.7,527.6,424.7z"/>
		<path fill="#85539E" d="M550,497.9c0.3,0,0.7,0,1-0.1c1.8-0.5,2.9-2.5,2.3-4.3l-9.5-32.2c-0.5-1.8-2.5-2.9-4.3-2.3
			c-1.8,0.5-2.9,2.5-2.3,4.3l9.5,32.2C547.1,496.9,548.5,497.9,550,497.9z"/>
		<path fill="#85539E" d="M213.1,508.1c0.8,0.2,1.5,0.3,2.3,0.3c3.6,0,6.8-2.4,7.8-5.8l59.4-200.3c0.6-2.1,0.4-4.3-0.6-6.2
			c-1-1.9-2.7-3.3-4.8-3.9c-0.8-0.2-1.5-0.3-2.3-0.3c-3.6,0-6.8,2.4-7.8,5.8L207.7,498c-0.6,2.1-0.4,4.3,0.6,6.2
			C209.3,506.1,211,507.5,213.1,508.1z"/>
		<path fill="#6EA0D5" d="M483.9,344.6c1.8-0.5,2.9-2.5,2.3-4.3c-21-70.9-41.5-140.1-44.2-149.1c-16.2-53.4-60.5-56.4-69.3-56.4
			c-8.7,0-53,2.5-69.3,56.4c-0.6,1.8,0.5,3.8,2.3,4.3c1.8,0.6,3.8-0.5,4.3-2.3c14.8-48.8,54.2-51.4,62.5-51.4c0.1,0,0.1,0,0.2,0
			c7.9,0,47.9,2.7,62.7,51.4c2.6,9,23.2,78.2,44.2,149.1c0.4,1.5,1.8,2.5,3.3,2.5C483.2,344.7,483.5,344.7,483.9,344.6z"/>
		<path fill="#85539E" d="M537.7,498c-3.3-11.3-16.9-56.9-32.5-109.8c-1-3.4-4.2-5.8-7.8-5.8c-0.8,0-1.5,0.1-2.3,0.3
			c-2.1,0.6-3.8,2-4.8,3.9c-1,1.9-1.3,4.1-0.6,6.2c15.7,52.9,29.2,98.6,32.5,109.8c1,3.4,4.2,5.8,7.8,5.8c0.8,0,1.6-0.1,2.3-0.3
			C536.5,506.8,539,502.3,537.7,498z"/>
		<path fill="#7D7FBC" d="M234.4,509.6c0.3,0.1,0.7,0.1,1,0.1c1.5,0,2.9-1,3.3-2.5l91.7-309.4c7.7-24.8,27.5-33.5,42.2-33.5
			c0,0,0.1,0,0.1,0c1.9,0,3.5-1.5,3.5-3.5c0-1.9-1.5-3.5-3.5-3.5c0,0-0.1,0-0.1,0c-17,0-40,10.1-48.8,38.5l-91.7,309.4
			C231.5,507.1,232.6,509,234.4,509.6z"/>
		<path fill="#7D7FBC" d="M464.1,357.3c0.6,0,1.1-0.1,1.6-0.2c1.5-0.4,2.7-1.4,3.4-2.8c0.7-1.4,0.9-2.9,0.5-4.4L440,249.6
			c-0.9-3-4.2-4.8-7.2-3.9c-1.5,0.4-2.7,1.4-3.4,2.8c-0.7,1.4-0.9,2.9-0.5,4.4l29.7,100.3C459.3,355.6,461.6,357.3,464.1,357.3z"/>
		<path fill="#85539E" d="M510,509.7c0.3,0,0.7,0,1-0.1c1.8-0.5,2.9-2.5,2.3-4.3c-1.4-4.8-11.3-38.2-24.2-81.6
			c-0.5-1.8-2.5-2.9-4.3-2.3c-1.8,0.5-2.9,2.5-2.3,4.3c12.8,43.3,22.7,76.8,24.2,81.5C507.1,508.7,508.5,509.7,510,509.7z"/>
		<path fill="#7D7FBC" d="M278.2,435.4c0.3,0.1,0.7,0.1,1,0.1c1.5,0,2.9-1,3.3-2.5l18.2-61.6c0.5-1.8-0.5-3.8-2.3-4.3
			c-1.8-0.5-3.8,0.5-4.3,2.3l-18.2,61.6C275.3,432.9,276.3,434.9,278.2,435.4z"/>
		<path fill="#7D7FBC" d="M434,326.8c0.3,0,0.7,0,1-0.1c1.8-0.5,2.9-2.5,2.3-4.3l-36.1-122c-4.2-12.2-15.6-20.4-28.5-20.4
			c-12.9,0-24.4,8.2-28.5,20.6l-23.2,78.3c-0.5,1.8,0.5,3.8,2.3,4.3c1.8,0.5,3.8-0.5,4.3-2.3l23.1-78.1c3.2-9.4,12-15.7,21.9-15.7
			c9.9,0,18.7,6.3,21.9,15.6l36.1,121.8C431.1,325.8,432.5,326.8,434,326.8z"/>
		<path fill="#85539E" d="M486.6,513.2c0.4,1.5,1.8,2.5,3.3,2.5c0.3,0,0.7,0,1-0.1c1.8-0.5,2.9-2.5,2.3-4.3l-30.9-104.3
			c-0.5-1.8-2.5-2.9-4.3-2.3c-1.8,0.5-2.9,2.5-2.3,4.3L486.6,513.2z"/>
	</g>
</g>
</svg>
